<svg version="1.1" id="layer" xmlns="http://www.w3.org/2000/svg" xmlns:xlink="http://www.w3.org/1999/xlink" x="0px" y="0px"
	 viewBox="0 0 652 652" style="enable-background:new 0 0 652 652;" xml:space="preserve">
<path style="fill: #286EFA" d="M151.6,247.8H39.1c-10.4,0-18.7,8.3-18.7,18.5v111.3c0,10.2,8.4,18.5,18.7,18.5h112.4
	c10.4,0,18.7-8.3,18.7-18.5V266.4C170.3,256.1,161.9,247.8,151.6,247.8z M115.3,275c0-2.7,2.2-4.9,5-4.9s5,2.2,5,4.9v66.1
	c0,2.7-2.2,4.9-5,4.9s-5-2.2-5-4.9V275z M90.4,272.5c0-2.7,2.2-4.9,5-4.9c2.8,0,5,2.2,5,4.9v71.7c0,2.7-2.2,4.9-5,4.9
	c-2.8,0-5-2.2-5-4.9V272.5z M65.4,275c0-2.7,2.2-4.9,5-4.9c2.8,0,5,2.2,5,4.9v66.1c0,2.7-2.2,4.9-5,4.9s-5-2.2-5-4.9V275z
	 M40.4,284.9c0-2.7,2.2-4.9,5-4.9s5,2.2,5,4.9v44.5c0,2.7-2.2,4.9-5,4.9c-2.8,0-5-2.2-5-4.9V284.9z M148.6,360.3
	c-0.8,0.7-19.3,16-53.2,16s-52.4-15.4-53.2-16c-2.1-1.8-2.3-4.9-0.5-7c1.8-2.1,4.9-2.3,7-0.5c0.3,0.2,16.8,13.7,46.7,13.7
	c30.3,0,46.6-13.5,46.7-13.6c2.1-1.8,5.2-1.5,7,0.5C150.9,355.4,150.7,358.6,148.6,360.3z M150.3,329.4c0,2.7-2.2,4.9-5,4.9
	c-2.8,0-5-2.2-5-4.9v-44.5c0-2.7,2.2-4.9,5-4.9c2.8,0,5,2.2,5,4.9V329.4z"/>
<path d="M228.4,343.4c0,2.5-1.9,4.5-4.6,4.5c-2.6,0-4.5-2-4.5-4.5v-43c0-2.5,1.9-4.5,4.6-4.5c2.6,0,4.5,2,4.5,4.5V343.4z"/>
<path d="M287.2,300.4v39.3c0,5.3-2.8,8.3-7.4,8.3h-0.4c-4.3,0-6.3-2.5-8.2-6.1l-9.2-17.8l-8.1-18.4l0.2,17.8l0.1,19.9
	c0,2.5-1.9,4.5-4.6,4.5c-2.6,0-4.5-2-4.5-4.5v-39.3c0-4.9,2.8-8.3,7.8-8.3h0.4c4.6,0,6.5,2.5,8.3,6.1l9,17.7l7.7,17.2l-0.2-16.5
	l-0.1-19.9c0-2.5,1.9-4.5,4.6-4.5C285.3,295.9,287.2,298,287.2,300.4z"/>
<path d="M323.6,343.4c0,2.5-1.9,4.5-4.6,4.5c-2.6,0-4.5-2-4.5-4.5v-38.9h-11.3c-2.3,0-4.2-1.7-4.2-4.3c0-2.5,1.9-4.2,4.2-4.2h31.7
	c2.3,0,4.2,1.7,4.2,4.3c0,2.5-1.9,4.2-4.2,4.2h-11.3V343.4z"/>
<path d="M351,341.9v-40.4c0-3.8,2.1-5.9,6-5.8h26.2c2.3,0,4.2,1.8,4.2,4.3c0,2.5-1.9,4.2-4.2,4.2H360v12.5h20.4
	c2.3,0,4.1,1.7,4.1,4.1s-1.8,4.1-4.1,4.1H360v14.4h23.1c2.3,0,4.2,1.8,4.2,4.3s-1.9,4.2-4.2,4.2h-26.4
	C353,347.9,350.8,345.8,351,341.9z"/>
<path d="M439.1,342c1.2,2.1,0.4,4.8-2.1,6.1c-2.5,1.2-5.2,0.3-6.4-1.8l-10.1-18.7h-9.6l0.1,15.9c0,2.5-1.9,4.5-4.6,4.5
	c-2.6,0-4.5-2-4.5-4.5v-41.9c0-3.8,2.1-5.9,6-5.8H425c11.9,0,16.8,7.7,16.8,15.6c0,7.5-4.4,13-11.9,14.5L439.1,342z M410.8,319.4
	h14.4c4.9,0,7.4-3.1,7.4-7.6c0-4.4-2.7-7.5-7.5-7.5h-14.3L410.8,319.4L410.8,319.4z"/>
<path d="M460.6,344c-5.5-4.9-7.9-12.5-7.9-22.1c0-9.7,2.4-17.2,7.8-22c3.3-2.9,7.9-4.9,14.4-4.9c5.8,0,10.2,1.3,13.5,4.1
	c2.9,2.3,5,5.6,6.3,10.2c0.7,2.4-1,4.8-3.8,5.3c-2.6,0.4-4.7-1.2-5.5-3.6c-0.9-2.3-2-4-3.4-5.2c-1.9-1.7-4.2-2.4-7.3-2.4
	c-3.3,0-6.1,0.9-8.2,3.1c-3.1,3.1-4.4,8.5-4.4,15.4c0,6.8,1.2,12.3,4.4,15.4c2.1,2.1,4.9,3.1,8.1,3.1c3.3,0,5.9-0.9,8-2.8
	c1.1-1,2-2.3,2.7-3.9c0.9-2.3,2.9-3.9,5.5-3.3c2.5,0.6,4.1,3.1,3.3,5.5c-1.3,4-3.6,7.2-6.6,9.4c-3.3,2.4-7.5,3.6-12.7,3.6
	C468,348.8,463.8,346.8,460.6,344z"/>
<path d="M504.9,321.9c0-16.3,6.7-26.9,22.5-26.9c15.6,0,22.4,10.3,22.4,26.9c0,16.8-6.8,26.9-22.4,26.9
	C511.5,348.8,504.9,338.7,504.9,321.9z M540.5,321.9c0-12.4-4.5-18.4-13.2-18.4c-8.5,0-13,6-13,18.4c0,12.4,4.4,18.4,13,18.4
	C535.9,340.3,540.5,334.3,540.5,321.9z"/>
<path d="M620.4,343.4c0,2.5-1.9,4.5-4.6,4.5c-2.6,0-4.5-2-4.5-4.5v-19.5l0.2-19l-6.3,19.3l-6.4,19c-1.1,3.3-3.3,4.7-6.2,4.7
	c-3,0-5.2-1.4-6.3-4.7l-6.6-18.9l-6-19l0.2,18.7v19.5c0,2.5-1.9,4.5-4.6,4.5c-2.6,0-4.5-2-4.5-4.5v-38.9c0-5.4,2.9-8.5,8-8.5
	c4.8,0,7.5,2.5,9,7.2l6.7,19.9l4.1,13.5l4.1-13.5l6.7-19.9c1.5-4.7,4.1-7.2,9-7.2c5.1,0,7.9,3.1,7.9,8.5L620.4,343.4z"/>
</svg>
